G75*
G70*
%OFA0B0*%
%FSLAX24Y24*%
%IPPOS*%
%LPD*%
%AMOC8*
5,1,8,0,0,1.08239X$1,22.5*
%
%ADD10C,0.0000*%
%ADD11C,0.0808*%
%ADD12C,0.0394*%
%ADD13C,0.0827*%
%ADD14C,0.0640*%
D10*
X001581Y000967D02*
X001581Y032463D01*
X040951Y032463D01*
X040951Y000967D01*
X001581Y000967D01*
X003904Y028101D02*
X003906Y028127D01*
X003912Y028153D01*
X003922Y028178D01*
X003935Y028201D01*
X003951Y028221D01*
X003971Y028239D01*
X003993Y028254D01*
X004016Y028266D01*
X004042Y028274D01*
X004068Y028278D01*
X004094Y028278D01*
X004120Y028274D01*
X004146Y028266D01*
X004170Y028254D01*
X004191Y028239D01*
X004211Y028221D01*
X004227Y028201D01*
X004240Y028178D01*
X004250Y028153D01*
X004256Y028127D01*
X004258Y028101D01*
X004256Y028075D01*
X004250Y028049D01*
X004240Y028024D01*
X004227Y028001D01*
X004211Y027981D01*
X004191Y027963D01*
X004169Y027948D01*
X004146Y027936D01*
X004120Y027928D01*
X004094Y027924D01*
X004068Y027924D01*
X004042Y027928D01*
X004016Y027936D01*
X003992Y027948D01*
X003971Y027963D01*
X003951Y027981D01*
X003935Y028001D01*
X003922Y028024D01*
X003912Y028049D01*
X003906Y028075D01*
X003904Y028101D01*
X003904Y029833D02*
X003906Y029859D01*
X003912Y029885D01*
X003922Y029910D01*
X003935Y029933D01*
X003951Y029953D01*
X003971Y029971D01*
X003993Y029986D01*
X004016Y029998D01*
X004042Y030006D01*
X004068Y030010D01*
X004094Y030010D01*
X004120Y030006D01*
X004146Y029998D01*
X004170Y029986D01*
X004191Y029971D01*
X004211Y029953D01*
X004227Y029933D01*
X004240Y029910D01*
X004250Y029885D01*
X004256Y029859D01*
X004258Y029833D01*
X004256Y029807D01*
X004250Y029781D01*
X004240Y029756D01*
X004227Y029733D01*
X004211Y029713D01*
X004191Y029695D01*
X004169Y029680D01*
X004146Y029668D01*
X004120Y029660D01*
X004094Y029656D01*
X004068Y029656D01*
X004042Y029660D01*
X004016Y029668D01*
X003992Y029680D01*
X003971Y029695D01*
X003951Y029713D01*
X003935Y029733D01*
X003922Y029756D01*
X003912Y029781D01*
X003906Y029807D01*
X003904Y029833D01*
D11*
X003081Y024967D03*
X003081Y023967D03*
X003081Y022967D03*
X003081Y021967D03*
X003081Y020967D03*
X003081Y019967D03*
X003081Y018967D03*
X003081Y017967D03*
X003081Y016967D03*
X003081Y015967D03*
X003081Y014967D03*
X003081Y013967D03*
X003081Y012967D03*
X003081Y011967D03*
X003081Y010967D03*
X003081Y009967D03*
X003081Y008967D03*
X003081Y007967D03*
X003081Y006967D03*
X003081Y005967D03*
X003081Y004967D03*
X003081Y003967D03*
X003081Y002967D03*
X003081Y001967D03*
X011081Y002467D03*
X012081Y002467D03*
X013081Y002467D03*
X014081Y002467D03*
X015081Y002467D03*
X016081Y002467D03*
X017081Y002467D03*
X018081Y002467D03*
X019081Y002467D03*
X020081Y002467D03*
X021081Y002467D03*
X022081Y002467D03*
X024631Y002467D03*
X025631Y002467D03*
X026631Y002467D03*
X027631Y002467D03*
X028631Y002467D03*
X029631Y002467D03*
X030631Y002467D03*
X031631Y002467D03*
X039581Y008467D03*
X039581Y009467D03*
X039581Y010467D03*
X039581Y011467D03*
X039581Y012467D03*
X039581Y013467D03*
X039581Y014467D03*
X039581Y015467D03*
X039581Y016467D03*
X039581Y017467D03*
X039581Y018467D03*
X039581Y019467D03*
X039581Y020467D03*
X039581Y021467D03*
X039581Y022467D03*
X039581Y023467D03*
X039581Y024467D03*
X039581Y025467D03*
X039581Y026467D03*
X039581Y027467D03*
X039581Y028467D03*
X039581Y029467D03*
X039581Y030467D03*
X039581Y031467D03*
X031681Y031017D03*
X030681Y031017D03*
X029681Y031017D03*
X028681Y031017D03*
X027681Y031017D03*
X026681Y031017D03*
X025681Y031017D03*
X024681Y031017D03*
X023681Y031017D03*
X022681Y031017D03*
X021681Y031017D03*
X020681Y031017D03*
X018181Y031017D03*
X017181Y031017D03*
X016181Y031017D03*
X015181Y031017D03*
X014181Y031017D03*
X013181Y031017D03*
X012181Y031017D03*
X011181Y031017D03*
D12*
X004081Y029833D03*
X004081Y028101D03*
D13*
X036387Y004656D02*
X037175Y004656D01*
X037962Y003160D02*
X037962Y002373D01*
X035561Y002373D02*
X035561Y003160D01*
D14*
X021581Y006917D02*
X020981Y006917D01*
X020981Y007917D02*
X021581Y007917D01*
X021581Y008917D02*
X020981Y008917D01*
X020981Y009917D02*
X021581Y009917D01*
X021581Y010917D02*
X020981Y010917D01*
X028281Y020067D02*
X028881Y020067D01*
X028881Y021067D02*
X028281Y021067D01*
M02*
