G75*
G70*
%OFA0B0*%
%FSLAX24Y24*%
%IPPOS*%
%LPD*%
%AMOC8*
5,1,8,0,0,1.08239X$1,22.5*
%
%ADD10C,0.0000*%
%ADD11R,0.0433X0.0394*%
%ADD12R,0.0425X0.0413*%
%ADD13R,0.0197X0.0276*%
%ADD14R,0.0394X0.0551*%
%ADD15R,0.0260X0.0800*%
%ADD16R,0.0500X0.0120*%
%ADD17R,0.1732X0.1831*%
%ADD18R,0.0591X0.0512*%
%ADD19R,0.0984X0.0787*%
%ADD20R,0.1299X0.0787*%
%ADD21R,0.1220X0.0197*%
%ADD22R,0.0394X0.0433*%
%ADD23R,0.0413X0.0425*%
%ADD24R,0.0945X0.0787*%
%ADD25R,0.0217X0.0472*%
%ADD26R,0.0591X0.0787*%
%ADD27R,0.0551X0.1181*%
%ADD28R,0.0276X0.0197*%
%ADD29R,0.0800X0.0260*%
%ADD30R,0.0591X0.0197*%
%ADD31R,0.0197X0.0591*%
%ADD32R,0.0880X0.0480*%
%ADD33R,0.0866X0.1417*%
%ADD34R,0.0551X0.0394*%
D10*
X001581Y000967D02*
X001581Y032463D01*
X040951Y032463D01*
X040951Y000967D01*
X001581Y000967D01*
X003904Y028101D02*
X003906Y028127D01*
X003912Y028153D01*
X003922Y028178D01*
X003935Y028201D01*
X003951Y028221D01*
X003971Y028239D01*
X003993Y028254D01*
X004016Y028266D01*
X004042Y028274D01*
X004068Y028278D01*
X004094Y028278D01*
X004120Y028274D01*
X004146Y028266D01*
X004170Y028254D01*
X004191Y028239D01*
X004211Y028221D01*
X004227Y028201D01*
X004240Y028178D01*
X004250Y028153D01*
X004256Y028127D01*
X004258Y028101D01*
X004256Y028075D01*
X004250Y028049D01*
X004240Y028024D01*
X004227Y028001D01*
X004211Y027981D01*
X004191Y027963D01*
X004169Y027948D01*
X004146Y027936D01*
X004120Y027928D01*
X004094Y027924D01*
X004068Y027924D01*
X004042Y027928D01*
X004016Y027936D01*
X003992Y027948D01*
X003971Y027963D01*
X003951Y027981D01*
X003935Y028001D01*
X003922Y028024D01*
X003912Y028049D01*
X003906Y028075D01*
X003904Y028101D01*
X003904Y029833D02*
X003906Y029859D01*
X003912Y029885D01*
X003922Y029910D01*
X003935Y029933D01*
X003951Y029953D01*
X003971Y029971D01*
X003993Y029986D01*
X004016Y029998D01*
X004042Y030006D01*
X004068Y030010D01*
X004094Y030010D01*
X004120Y030006D01*
X004146Y029998D01*
X004170Y029986D01*
X004191Y029971D01*
X004211Y029953D01*
X004227Y029933D01*
X004240Y029910D01*
X004250Y029885D01*
X004256Y029859D01*
X004258Y029833D01*
X004256Y029807D01*
X004250Y029781D01*
X004240Y029756D01*
X004227Y029733D01*
X004211Y029713D01*
X004191Y029695D01*
X004169Y029680D01*
X004146Y029668D01*
X004120Y029660D01*
X004094Y029656D01*
X004068Y029656D01*
X004042Y029660D01*
X004016Y029668D01*
X003992Y029680D01*
X003971Y029695D01*
X003951Y029713D01*
X003935Y029733D01*
X003922Y029756D01*
X003912Y029781D01*
X003906Y029807D01*
X003904Y029833D01*
D11*
X007531Y030682D03*
X007531Y031351D03*
X008331Y031351D03*
X008331Y030682D03*
X011581Y027051D03*
X011581Y026382D03*
X012581Y026382D03*
X012581Y027051D03*
X013581Y027051D03*
X013581Y026382D03*
X014581Y026382D03*
X014581Y027051D03*
X015581Y027051D03*
X015581Y026382D03*
X016581Y026382D03*
X016581Y027051D03*
X017581Y027051D03*
X017581Y026382D03*
X018581Y026382D03*
X018581Y027051D03*
X020681Y028682D03*
X020681Y029351D03*
X021681Y029351D03*
X021681Y028682D03*
X022681Y028682D03*
X022681Y029351D03*
X023681Y029351D03*
X023681Y028682D03*
X024681Y028682D03*
X024681Y029351D03*
X025681Y029351D03*
X025681Y028682D03*
X026681Y028682D03*
X026681Y029351D03*
X027681Y029351D03*
X027681Y028682D03*
X028681Y028682D03*
X028681Y029351D03*
X029681Y029351D03*
X029681Y028682D03*
X030681Y028682D03*
X030681Y029351D03*
X022981Y024601D03*
X022981Y023932D03*
X018581Y022801D03*
X018581Y022132D03*
X018581Y021601D03*
X018581Y020932D03*
X017581Y020932D03*
X017581Y021601D03*
X017581Y022132D03*
X017581Y022801D03*
X016581Y022801D03*
X016581Y022132D03*
X016581Y021601D03*
X016581Y020932D03*
X015581Y020932D03*
X015581Y021601D03*
X015581Y022132D03*
X015581Y022801D03*
X014581Y022801D03*
X014581Y022132D03*
X014581Y021601D03*
X014581Y020932D03*
X013581Y020932D03*
X013581Y021601D03*
X013581Y022132D03*
X013581Y022801D03*
X012581Y022801D03*
X012581Y022132D03*
X012581Y021601D03*
X012581Y020932D03*
X011581Y020932D03*
X011581Y021601D03*
X011581Y022132D03*
X011581Y022801D03*
X014331Y016501D03*
X014331Y015832D03*
X015131Y015832D03*
X015131Y016501D03*
X019681Y009401D03*
X019681Y008732D03*
X020081Y004801D03*
X020081Y004132D03*
X021081Y004132D03*
X021081Y004801D03*
X022081Y004801D03*
X022081Y004132D03*
X019081Y004132D03*
X019081Y004801D03*
X018081Y004801D03*
X018081Y004132D03*
X017081Y004132D03*
X017081Y004801D03*
X016081Y004801D03*
X016081Y004132D03*
X015081Y004132D03*
X015081Y004801D03*
X014081Y004801D03*
X014081Y004132D03*
X013081Y004132D03*
X013081Y004801D03*
X012081Y004801D03*
X012081Y004132D03*
X025231Y006432D03*
X025231Y007101D03*
X026231Y007101D03*
X026231Y006432D03*
X027231Y006432D03*
X027231Y007101D03*
X028231Y007101D03*
X028231Y006432D03*
X029231Y006432D03*
X029231Y007101D03*
X030231Y007101D03*
X030231Y006432D03*
X031231Y006432D03*
X031231Y007101D03*
X032231Y007101D03*
X032231Y006432D03*
X032231Y010782D03*
X032231Y011451D03*
X032231Y011982D03*
X032231Y012651D03*
X031231Y012651D03*
X031231Y011982D03*
X031231Y011451D03*
X031231Y010782D03*
X030231Y010782D03*
X030231Y011451D03*
X030231Y011982D03*
X030231Y012651D03*
X029231Y012651D03*
X029231Y011982D03*
X029231Y011451D03*
X029231Y010782D03*
X028231Y010782D03*
X028231Y011451D03*
X028231Y011982D03*
X028231Y012651D03*
X027231Y012651D03*
X027231Y011982D03*
X027231Y011451D03*
X027231Y010782D03*
X026231Y010782D03*
X026231Y011451D03*
X026231Y011982D03*
X026231Y012651D03*
X025231Y012651D03*
X025231Y011982D03*
X025231Y011451D03*
X025231Y010782D03*
X028981Y017032D03*
X028981Y017701D03*
X029981Y017701D03*
X029981Y017032D03*
D12*
X032181Y014511D03*
X032831Y014511D03*
X032831Y013822D03*
X032181Y013822D03*
X033331Y011511D03*
X033331Y010822D03*
X032231Y005911D03*
X031231Y005911D03*
X031231Y005222D03*
X032231Y005222D03*
X030231Y005222D03*
X029231Y005222D03*
X028231Y005222D03*
X028231Y005911D03*
X029231Y005911D03*
X030231Y005911D03*
X027231Y005911D03*
X026231Y005911D03*
X025231Y005911D03*
X025231Y005222D03*
X026231Y005222D03*
X027231Y005222D03*
X023631Y010322D03*
X023631Y011011D03*
X018931Y011061D03*
X018931Y010372D03*
X018331Y014122D03*
X017731Y014122D03*
X017731Y014811D03*
X018331Y014811D03*
X024181Y016572D03*
X024781Y016572D03*
X025381Y016772D03*
X024781Y017261D03*
X025381Y017461D03*
X025381Y018022D03*
X025381Y018711D03*
X024181Y017261D03*
X011581Y019072D03*
X011581Y019761D03*
X010881Y019761D03*
X010881Y019072D03*
X011581Y027572D03*
X011581Y028261D03*
X012581Y028261D03*
X012581Y027572D03*
X013581Y027572D03*
X013581Y028261D03*
X014581Y028261D03*
X014581Y027572D03*
X015581Y027572D03*
X015581Y028261D03*
X016581Y028261D03*
X016581Y027572D03*
X017581Y027572D03*
X017581Y028261D03*
X018581Y028261D03*
X018581Y027572D03*
X033931Y031122D03*
X033931Y031811D03*
X008931Y002311D03*
X008931Y001622D03*
D13*
X025231Y004130D03*
X025231Y004642D03*
X026231Y004642D03*
X026231Y004130D03*
X027231Y004130D03*
X027231Y004642D03*
X028231Y004642D03*
X028231Y004130D03*
X029231Y004130D03*
X029231Y004642D03*
X030231Y004642D03*
X030231Y004130D03*
X031231Y004130D03*
X031231Y004642D03*
X032231Y004642D03*
X032231Y004130D03*
X018581Y028841D03*
X018581Y029353D03*
X017581Y029353D03*
X017581Y028841D03*
X016581Y028841D03*
X016581Y029353D03*
X015581Y029353D03*
X015581Y028841D03*
X014581Y028841D03*
X014581Y029353D03*
X013581Y029353D03*
X013581Y028841D03*
X012581Y028841D03*
X012581Y029353D03*
X011581Y029353D03*
X011581Y028841D03*
D14*
X011581Y025750D03*
X011955Y024884D03*
X012581Y024650D03*
X013207Y024884D03*
X013955Y024884D03*
X014581Y024650D03*
X015207Y024884D03*
X015955Y024884D03*
X016581Y024650D03*
X017207Y024884D03*
X017955Y024884D03*
X018581Y024650D03*
X018955Y023784D03*
X018207Y023784D03*
X016955Y023784D03*
X016207Y023784D03*
X014955Y023784D03*
X014207Y023784D03*
X012955Y023784D03*
X012207Y023784D03*
X011207Y024884D03*
X013581Y025750D03*
X015581Y025750D03*
X017581Y025750D03*
X024857Y009700D03*
X025605Y009700D03*
X025231Y008834D03*
X025857Y008600D03*
X026605Y008600D03*
X027231Y008834D03*
X027857Y008600D03*
X028605Y008600D03*
X029231Y008834D03*
X029857Y008600D03*
X030605Y008600D03*
X031231Y008834D03*
X031857Y008600D03*
X032605Y008600D03*
X032231Y007734D03*
X030231Y007734D03*
X028231Y007734D03*
X026231Y007734D03*
X026857Y009700D03*
X027605Y009700D03*
X028857Y009700D03*
X029605Y009700D03*
X030857Y009700D03*
X031605Y009700D03*
D15*
X031481Y013807D03*
X030981Y013807D03*
X030481Y013807D03*
X029981Y013807D03*
X029481Y013807D03*
X028981Y013807D03*
X028481Y013807D03*
X027981Y013807D03*
X027981Y016227D03*
X028481Y016227D03*
X028981Y016227D03*
X029481Y016227D03*
X029981Y016227D03*
X030481Y016227D03*
X030981Y016227D03*
X031481Y016227D03*
X015831Y017407D03*
X015331Y017407D03*
X014831Y017407D03*
X014331Y017407D03*
X013831Y017407D03*
X013331Y017407D03*
X012831Y017407D03*
X012331Y017407D03*
X012331Y019827D03*
X012831Y019827D03*
X013331Y019827D03*
X013831Y019827D03*
X014331Y019827D03*
X014831Y019827D03*
X015331Y019827D03*
X015831Y019827D03*
D16*
X012631Y010887D03*
X012631Y010627D03*
X012631Y010377D03*
X012631Y010117D03*
X012631Y009867D03*
X012631Y009607D03*
X012631Y009347D03*
X012631Y009097D03*
X012631Y008837D03*
X012631Y008587D03*
X012631Y008327D03*
X012631Y008067D03*
X012631Y007817D03*
X012631Y007557D03*
X012631Y007307D03*
X012631Y007047D03*
X009631Y007047D03*
X009631Y007307D03*
X009631Y007557D03*
X009631Y007817D03*
X009631Y008067D03*
X009631Y008327D03*
X009631Y008587D03*
X009631Y008837D03*
X009631Y009097D03*
X009631Y009347D03*
X009631Y009607D03*
X009631Y009867D03*
X009631Y010117D03*
X009631Y010377D03*
X009631Y010627D03*
X009631Y010887D03*
X030031Y022547D03*
X030031Y022807D03*
X030031Y023057D03*
X030031Y023317D03*
X030031Y023567D03*
X030031Y023827D03*
X030031Y024087D03*
X030031Y024337D03*
X030031Y024597D03*
X030031Y024847D03*
X030031Y025107D03*
X030031Y025367D03*
X030031Y025617D03*
X030031Y025877D03*
X030031Y026127D03*
X030031Y026387D03*
X033031Y026387D03*
X033031Y026127D03*
X033031Y025877D03*
X033031Y025617D03*
X033031Y025367D03*
X033031Y025107D03*
X033031Y024847D03*
X033031Y024597D03*
X033031Y024337D03*
X033031Y024087D03*
X033031Y023827D03*
X033031Y023567D03*
X033031Y023317D03*
X033031Y023057D03*
X033031Y022807D03*
X033031Y022547D03*
D17*
X031531Y024467D03*
X011131Y008967D03*
D18*
X009831Y006201D03*
X009831Y005532D03*
X034131Y005882D03*
X034131Y006551D03*
X032981Y027132D03*
X032981Y027801D03*
D19*
X002900Y027215D03*
X002900Y030719D03*
D20*
X005223Y030719D03*
X005223Y027215D03*
D21*
X005262Y028337D03*
X005262Y028652D03*
X005262Y028967D03*
X005262Y029282D03*
X005262Y029597D03*
D22*
X007146Y024967D03*
X007816Y024967D03*
X007816Y023967D03*
X007146Y023967D03*
X007146Y022967D03*
X007816Y022967D03*
X007816Y021967D03*
X007146Y021967D03*
X007146Y020967D03*
X007816Y020967D03*
X007816Y019967D03*
X007146Y019967D03*
X007146Y018967D03*
X007816Y018967D03*
X007816Y017967D03*
X007146Y017967D03*
X007146Y016967D03*
X007816Y016967D03*
X007816Y015967D03*
X007146Y015967D03*
X007146Y014967D03*
X007816Y014967D03*
X007816Y013967D03*
X007146Y013967D03*
X007146Y012967D03*
X007816Y012967D03*
X007816Y011967D03*
X007146Y011967D03*
X007146Y010967D03*
X007816Y010967D03*
X007816Y009967D03*
X007146Y009967D03*
X007146Y008967D03*
X007816Y008967D03*
X007816Y007967D03*
X007146Y007967D03*
X007146Y006967D03*
X007816Y006967D03*
X007816Y005967D03*
X007146Y005967D03*
X007146Y004967D03*
X007816Y004967D03*
X007816Y003967D03*
X007146Y003967D03*
X007146Y002967D03*
X007816Y002967D03*
X007816Y001967D03*
X007146Y001967D03*
X019596Y010267D03*
X020266Y010267D03*
X020266Y011067D03*
X019596Y011067D03*
X021296Y012667D03*
X021966Y012667D03*
X024346Y014217D03*
X025016Y014217D03*
X028196Y018617D03*
X028866Y018617D03*
X034846Y018467D03*
X035516Y018467D03*
X035516Y019467D03*
X034846Y019467D03*
X034846Y020467D03*
X035516Y020467D03*
X035516Y021467D03*
X034846Y021467D03*
X034846Y022467D03*
X035516Y022467D03*
X035516Y023467D03*
X034846Y023467D03*
X034846Y024467D03*
X035516Y024467D03*
X035516Y025467D03*
X034846Y025467D03*
X034846Y026467D03*
X035516Y026467D03*
X035516Y027467D03*
X034846Y027467D03*
X034846Y028467D03*
X035516Y028467D03*
X035516Y029467D03*
X034846Y029467D03*
X034846Y030467D03*
X035516Y030467D03*
X035516Y031467D03*
X034846Y031467D03*
X017466Y018417D03*
X016796Y018417D03*
X034846Y017467D03*
X035516Y017467D03*
X035516Y016467D03*
X034846Y016467D03*
X034846Y015467D03*
X035516Y015467D03*
X035516Y014467D03*
X034846Y014467D03*
X034846Y013467D03*
X035516Y013467D03*
X035516Y012467D03*
X034846Y012467D03*
X034846Y011467D03*
X035516Y011467D03*
X035516Y010467D03*
X034846Y010467D03*
X034846Y009467D03*
X035516Y009467D03*
X035516Y008467D03*
X034846Y008467D03*
D23*
X036137Y008467D03*
X036825Y008467D03*
X036825Y009467D03*
X036137Y009467D03*
X036137Y010467D03*
X036825Y010467D03*
X036825Y011467D03*
X036137Y011467D03*
X036137Y012467D03*
X036825Y012467D03*
X036825Y013467D03*
X036137Y013467D03*
X036137Y014467D03*
X036825Y014467D03*
X036825Y015467D03*
X036137Y015467D03*
X036137Y016467D03*
X036825Y016467D03*
X036825Y017467D03*
X036137Y017467D03*
X036137Y018467D03*
X036825Y018467D03*
X036825Y019467D03*
X036137Y019467D03*
X036137Y020467D03*
X036825Y020467D03*
X036825Y021467D03*
X036137Y021467D03*
X036137Y022467D03*
X036825Y022467D03*
X036825Y023467D03*
X036137Y023467D03*
X036137Y024467D03*
X036825Y024467D03*
X036825Y025467D03*
X036137Y025467D03*
X036137Y026467D03*
X036825Y026467D03*
X036825Y027467D03*
X036137Y027467D03*
X036137Y028467D03*
X036825Y028467D03*
X036825Y029467D03*
X036137Y029467D03*
X036137Y030467D03*
X036825Y030467D03*
X036825Y031467D03*
X036137Y031467D03*
X032225Y027617D03*
X032225Y027017D03*
X031537Y027017D03*
X031537Y027617D03*
X026475Y027867D03*
X025787Y027867D03*
X020725Y024067D03*
X020037Y024067D03*
X020587Y020767D03*
X021275Y020767D03*
X021275Y020167D03*
X020587Y020167D03*
X024537Y022967D03*
X025225Y022967D03*
X017975Y016817D03*
X017287Y016817D03*
X020587Y013917D03*
X021275Y013917D03*
X021275Y013317D03*
X020587Y013317D03*
X018025Y010317D03*
X017337Y010317D03*
X022887Y009117D03*
X023575Y009117D03*
X016875Y005567D03*
X016187Y005567D03*
X011275Y005817D03*
X011275Y006417D03*
X010587Y006417D03*
X010587Y005817D03*
X006525Y005967D03*
X005837Y005967D03*
X005837Y006967D03*
X006525Y006967D03*
X006525Y007967D03*
X005837Y007967D03*
X005837Y008967D03*
X006525Y008967D03*
X006525Y009967D03*
X005837Y009967D03*
X005837Y010967D03*
X006525Y010967D03*
X006525Y011967D03*
X005837Y011967D03*
X005837Y012967D03*
X006525Y012967D03*
X006525Y013967D03*
X005837Y013967D03*
X005837Y014967D03*
X006525Y014967D03*
X006525Y015967D03*
X005837Y015967D03*
X005837Y016967D03*
X006525Y016967D03*
X006525Y017967D03*
X005837Y017967D03*
X005837Y018967D03*
X006525Y018967D03*
X006525Y019967D03*
X005837Y019967D03*
X005837Y020967D03*
X006525Y020967D03*
X006525Y021967D03*
X005837Y021967D03*
X005837Y022967D03*
X006525Y022967D03*
X006525Y023967D03*
X005837Y023967D03*
X005837Y024967D03*
X006525Y024967D03*
X006025Y025667D03*
X005337Y025667D03*
X005837Y004967D03*
X006525Y004967D03*
X006525Y003967D03*
X005837Y003967D03*
X005837Y002967D03*
X006525Y002967D03*
X006525Y001967D03*
X005837Y001967D03*
D24*
X026281Y016979D03*
X026281Y018554D03*
D25*
X023055Y010928D03*
X022307Y010928D03*
X022307Y009905D03*
X022681Y009905D03*
X023055Y009905D03*
D26*
X023572Y011817D03*
X022390Y011817D03*
X017972Y017567D03*
X016790Y017567D03*
D27*
X020281Y025122D03*
X020281Y027012D03*
X023431Y007962D03*
X023431Y006072D03*
X033681Y003862D03*
X033681Y001972D03*
X039531Y005272D03*
X039531Y007162D03*
D28*
X037857Y008467D03*
X037345Y008467D03*
X037345Y009467D03*
X037857Y009467D03*
X037857Y010467D03*
X037345Y010467D03*
X037345Y011467D03*
X037857Y011467D03*
X037857Y012467D03*
X037345Y012467D03*
X037345Y013467D03*
X037857Y013467D03*
X037857Y014467D03*
X037345Y014467D03*
X037345Y015467D03*
X037857Y015467D03*
X037857Y016467D03*
X037345Y016467D03*
X037345Y017467D03*
X037857Y017467D03*
X037857Y018467D03*
X037345Y018467D03*
X037345Y019467D03*
X037857Y019467D03*
X037857Y020467D03*
X037345Y020467D03*
X037345Y021467D03*
X037857Y021467D03*
X037857Y022467D03*
X037345Y022467D03*
X037345Y023467D03*
X037857Y023467D03*
X037857Y024467D03*
X037345Y024467D03*
X037345Y025467D03*
X037857Y025467D03*
X037857Y026467D03*
X037345Y026467D03*
X037345Y027467D03*
X037857Y027467D03*
X037857Y028467D03*
X037345Y028467D03*
X037345Y029467D03*
X037857Y029467D03*
X037857Y030467D03*
X037345Y030467D03*
X037345Y031467D03*
X037857Y031467D03*
X005317Y024967D03*
X004805Y024967D03*
X004805Y023967D03*
X005317Y023967D03*
X005317Y022967D03*
X004805Y022967D03*
X004805Y021967D03*
X005317Y021967D03*
X005317Y020967D03*
X004805Y020967D03*
X004805Y019967D03*
X005317Y019967D03*
X005317Y018967D03*
X004805Y018967D03*
X004805Y017967D03*
X005317Y017967D03*
X005317Y016967D03*
X004805Y016967D03*
X004805Y015967D03*
X005317Y015967D03*
X005317Y014967D03*
X004805Y014967D03*
X004805Y013967D03*
X005317Y013967D03*
X005317Y012967D03*
X004805Y012967D03*
X004805Y011967D03*
X005317Y011967D03*
X005317Y010967D03*
X004805Y010967D03*
X004805Y009967D03*
X005317Y009967D03*
X005317Y008967D03*
X004805Y008967D03*
X004805Y007967D03*
X005317Y007967D03*
X005317Y006967D03*
X004805Y006967D03*
X004805Y005967D03*
X005317Y005967D03*
X005317Y004967D03*
X004805Y004967D03*
X004805Y003967D03*
X005317Y003967D03*
X005317Y002967D03*
X004805Y002967D03*
X004805Y001967D03*
X005317Y001967D03*
D29*
X016371Y006217D03*
X016371Y006717D03*
X016371Y007217D03*
X016371Y007717D03*
X016371Y008217D03*
X016371Y008717D03*
X016371Y009217D03*
X016371Y009717D03*
X018791Y009717D03*
X018791Y009217D03*
X018791Y008717D03*
X018791Y008217D03*
X018791Y007717D03*
X018791Y007217D03*
X018791Y006717D03*
X018791Y006217D03*
X023871Y023617D03*
X023871Y024117D03*
X023871Y024617D03*
X023871Y025117D03*
X023871Y025617D03*
X023871Y026117D03*
X023871Y026617D03*
X023871Y027117D03*
X026291Y027117D03*
X026291Y026617D03*
X026291Y026117D03*
X026291Y025617D03*
X026291Y025117D03*
X026291Y024617D03*
X026291Y024117D03*
X026291Y023617D03*
D30*
X023364Y018541D03*
X023364Y018227D03*
X023364Y017912D03*
X023364Y017597D03*
X023364Y017282D03*
X023364Y016967D03*
X023364Y016652D03*
X023364Y016337D03*
X023364Y016022D03*
X023364Y015707D03*
X023364Y015392D03*
X018798Y015392D03*
X018798Y015707D03*
X018798Y016022D03*
X018798Y016337D03*
X018798Y016652D03*
X018798Y016967D03*
X018798Y017282D03*
X018798Y017597D03*
X018798Y017912D03*
X018798Y018227D03*
X018798Y018541D03*
D31*
X019506Y019250D03*
X019821Y019250D03*
X020136Y019250D03*
X020451Y019250D03*
X020766Y019250D03*
X021081Y019250D03*
X021396Y019250D03*
X021711Y019250D03*
X022026Y019250D03*
X022341Y019250D03*
X022656Y019250D03*
X022656Y014683D03*
X022341Y014683D03*
X022026Y014683D03*
X021711Y014683D03*
X021396Y014683D03*
X021081Y014683D03*
X020766Y014683D03*
X020451Y014683D03*
X020136Y014683D03*
X019821Y014683D03*
X019506Y014683D03*
D32*
X035161Y007577D03*
X035161Y006667D03*
X035161Y005757D03*
D33*
X037601Y006667D03*
D34*
X029648Y018593D03*
X030514Y018967D03*
X029648Y019341D03*
M02*
