%
M48
M72
T01C0.0150
T02C0.0354
T03C0.0394
T04C0.0400
T05C0.0512
%
T01
X2281Y1617
X5831Y2467
X5831Y3467
X5831Y4467
X5831Y5467
X5831Y6467
X5831Y7467
X5831Y8467
X5831Y9467
X5831Y10467
X5831Y11467
X5831Y12467
X5831Y13467
X5831Y14467
X5831Y15467
X5831Y16467
X5831Y17467
X5831Y18467
X5831Y19467
X5831Y20467
X5831Y21467
X5831Y22467
X5831Y23467
X5831Y24467
X6631Y25617
X7831Y25467
X8681Y24717
X7831Y24467
X7831Y23467
X7831Y22467
X7831Y21467
X7831Y20467
X7831Y19467
X7831Y18467
X7831Y17467
X7831Y16467
X7831Y15467
X7831Y14467
X8931Y14067
X9331Y13667
X9731Y13267
X10131Y12867
X9031Y12167
X9681Y11417
X10381Y10867
X11031Y11067
X11431Y10667
X11831Y10267
X11131Y10117
X11131Y9567
X11831Y9567
X11831Y8967
X11131Y8967
X11131Y8267
X11931Y8267
X11131Y7567
X10581Y7567
X10331Y8267
X10381Y8967
X10381Y9617
X10381Y10217
X10631Y11467
X7831Y11467
X7831Y12467
X7831Y13467
X11281Y15367
X12231Y16567
X13731Y16617
X13631Y15217
X13081Y13717
X14531Y12967
X16131Y13617
X17131Y14417
X15931Y15217
X16931Y16317
X17381Y17567
X17931Y18417
X19031Y18967
X19081Y19417
X19531Y20017
X20131Y19967
X20831Y21317
X20831Y21867
X20281Y21667
X20381Y22217
X21331Y22517
X20131Y23467
X19081Y22867
X18081Y22867
X17081Y22867
X16081Y22867
X15081Y22867
X14081Y22867
X13081Y22867
X12081Y22867
X11231Y23817
X11581Y24417
X13081Y24317
X13581Y24417
X15081Y24317
X15581Y24417
X17081Y24317
X17581Y24417
X19081Y24317
X20281Y26067
X19081Y26717
X18081Y26717
X17081Y26717
X16081Y26717
X15081Y26717
X14081Y26717
X13081Y26717
X12081Y26717
X10281Y27867
X9031Y26917
X7031Y27167
X7281Y28667
X6581Y28917
X6281Y29667
X7231Y29617
X7181Y30167
X6931Y31317
X5381Y31717
X4031Y30817
X2331Y31717
X2981Y28967
X4031Y27117
X4581Y25567
X2381Y25617
X2331Y21467
X2331Y17467
X2331Y13467
X2331Y9467
X2331Y5467
X7831Y5467
X7831Y6467
X7831Y7467
X7831Y8467
X7831Y9467
X7831Y10467
X11931Y6767
X11881Y5967
X12731Y6467
X13431Y6667
X14181Y6667
X13881Y7967
X13381Y8217
X13781Y8617
X13331Y8817
X13481Y9317
X15681Y9017
X15681Y9667
X16831Y10167
X17881Y9667
X18481Y10317
X18281Y10967
X19231Y12317
X20181Y12367
X20681Y12767
X19881Y13267
X19231Y13367
X18831Y13067
X18281Y12417
X19581Y13817
X22031Y13917
X22631Y14117
X23081Y14717
X23731Y14417
X24931Y15117
X24681Y15617
X24231Y16067
X25381Y16317
X25531Y15417
X26731Y15067
X26681Y16267
X28081Y15467
X28981Y14967
X30331Y15167
X30831Y15217
X31481Y15367
X32131Y15167
X31481Y14617
X33031Y15817
X32731Y16517
X31681Y17017
X30631Y17067
X29481Y17667
X30331Y18367
X31081Y18367
X29031Y19317
X28181Y19317
X27031Y19267
X25831Y19367
X25131Y19917
X24431Y19617
X24281Y18967
X24781Y18517
X23231Y18967
X23131Y19417
X22581Y19867
X21981Y20117
X21781Y20667
X23431Y21017
X23731Y20117
X25331Y21017
X24781Y22467
X23981Y23117
X23081Y23167
X23081Y22517
X21381Y24367
X24831Y24517
X26081Y23217
X27081Y24367
X28081Y23117
X28081Y22717
X28481Y22117
X28081Y21717
X27231Y22217
X27031Y20617
X29081Y21767
X30831Y23167
X31231Y22767
X31631Y22367
X32031Y21967
X32631Y22067
X32281Y22667
X32331Y23267
X32281Y23917
X32281Y24567
X32281Y25067
X31531Y25067
X30731Y25067
X30731Y24567
X31531Y24467
X31531Y23917
X30731Y23917
X31531Y23317
X33581Y22017
X33581Y21167
X32531Y20567
X32931Y20167
X33331Y19767
X33731Y19367
X34831Y18967
X34831Y19967
X34831Y20967
X34831Y21967
X34831Y22967
X34831Y23967
X34831Y24967
X34831Y25967
X34831Y26967
X34831Y27967
X34831Y28967
X34831Y29967
X34831Y30967
X33381Y31317
X31281Y30267
X31381Y28717
X32881Y28467
X30931Y27167
X29781Y26967
X28431Y26967
X28781Y25467
X29281Y25217
X28881Y24817
X29331Y24617
X29181Y24117
X30731Y25717
X31931Y25817
X31881Y26417
X36831Y25967
X36831Y26967
X36831Y27967
X36831Y28967
X36831Y29967
X36831Y30967
X37981Y32017
X40281Y31817
X40281Y27967
X36831Y24967
X36831Y23967
X36831Y22967
X36831Y21967
X36831Y20967
X36831Y19967
X36831Y18967
X36831Y17967
X36831Y16967
X36831Y15967
X36831Y14967
X36831Y13967
X36831Y12967
X36831Y11967
X36831Y10967
X36831Y9967
X36831Y8967
X36381Y7867
X35931Y7367
X36831Y6767
X36881Y5817
X36031Y5867
X34381Y5117
X34631Y3917
X36181Y3867
X37581Y3917
X38731Y3567
X39481Y2717
X40181Y1767
X38531Y1717
X36781Y1767
X34581Y1867
X32681Y2067
X31731Y4617
X30731Y4617
X29731Y4617
X28731Y4617
X27731Y4617
X26731Y4617
X25731Y4617
X24781Y4667
X23531Y5117
X22131Y5417
X20981Y6167
X20331Y6167
X20031Y6767
X19681Y7667
X19531Y8117
X17831Y8317
X17381Y5917
X22181Y6417
X23431Y6967
X22731Y7517
X24731Y6767
X25731Y6767
X26731Y6767
X27731Y6767
X28731Y6767
X29731Y6767
X30731Y6767
X31731Y6767
X32831Y7817
X32231Y9067
X30731Y9167
X30231Y9067
X28731Y9167
X28231Y9067
X26731Y9167
X26231Y9067
X24731Y9167
X23581Y9717
X22681Y10467
X24331Y11367
X24731Y10717
X25731Y10717
X26731Y10717
X27731Y10717
X28731Y10717
X29731Y10717
X30731Y10717
X31731Y10717
X33281Y12067
X34831Y11967
X34831Y12967
X34831Y13967
X34831Y14967
X34831Y15967
X34831Y16967
X34831Y17967
X40281Y19967
X40281Y23967
X40281Y15967
X40281Y11967
X40431Y8217
X38881Y7617
X38581Y6717
X38831Y5817
X37781Y7667
X34831Y8967
X34331Y8467
X34381Y7867
X34231Y7217
X32781Y5217
X28131Y1667
X23831Y1767
X22881Y2767
X23481Y3467
X15231Y11317
X15681Y11517
X16181Y11717
X13881Y11567
X19431Y16517
X19681Y17017
X19431Y17517
X19831Y17917
X19481Y18367
X21681Y18517
X22131Y18167
X22081Y17717
X22481Y17417
X22731Y16567
X21731Y16167
X21431Y15767
X22081Y15317
X22231Y13267
X24531Y12967
X28181Y17417
X27031Y17767
X19181Y21417
X15131Y18617
X13331Y18217
X13131Y18717
X12431Y18867
X12331Y18217
X11831Y18467
X10581Y18217
X9631Y17167
X9181Y22017
X12081Y28817
X13081Y28817
X14081Y28817
X15081Y28817
X16081Y28817
X17081Y28817
X18081Y28817
X18981Y28867
X20231Y28017
X21981Y27267
X25331Y27417
X20131Y30217
X18781Y31717
X14681Y31767
X11031Y29217
X8831Y30667
X8431Y29967
X9131Y31667
X10431Y31667
X34831Y10967
X34831Y9967
X40431Y3617
X11531Y3117
X11381Y4667
X9781Y4867
X7831Y4467
X7831Y3467
X7831Y2467
X9531Y2217
T02
X4081Y28101
X4081Y29833
T03
X36781Y4656
X37962Y2767
X35561Y2767
T04
X21281Y6917
X21281Y7917
X21281Y8917
X21281Y9917
X21281Y10917
X28581Y20067
X28581Y21067
T05
X39581Y21467
X39581Y22467
X39581Y23467
X39581Y24467
X39581Y25467
X39581Y26467
X39581Y27467
X39581Y28467
X39581Y29467
X39581Y30467
X39581Y31467
X31681Y31017
X30681Y31017
X29681Y31017
X28681Y31017
X27681Y31017
X26681Y31017
X25681Y31017
X24681Y31017
X23681Y31017
X22681Y31017
X21681Y31017
X20681Y31017
X18181Y31017
X17181Y31017
X16181Y31017
X15181Y31017
X14181Y31017
X13181Y31017
X12181Y31017
X11181Y31017
X3081Y24967
X3081Y23967
X3081Y22967
X3081Y21967
X3081Y20967
X3081Y19967
X3081Y18967
X3081Y17967
X3081Y16967
X3081Y15967
X3081Y14967
X3081Y13967
X3081Y12967
X3081Y11967
X3081Y10967
X3081Y9967
X3081Y8967
X3081Y7967
X3081Y6967
X3081Y5967
X3081Y4967
X3081Y3967
X3081Y2967
X3081Y1967
X11081Y2467
X12081Y2467
X13081Y2467
X14081Y2467
X15081Y2467
X16081Y2467
X17081Y2467
X18081Y2467
X19081Y2467
X20081Y2467
X21081Y2467
X22081Y2467
X24631Y2467
X25631Y2467
X26631Y2467
X27631Y2467
X28631Y2467
X29631Y2467
X30631Y2467
X31631Y2467
X39581Y8467
X39581Y9467
X39581Y10467
X39581Y11467
X39581Y12467
X39581Y13467
X39581Y14467
X39581Y15467
X39581Y16467
X39581Y17467
X39581Y18467
X39581Y19467
X39581Y20467
M30
